HIERARCHY
ROOT Hips
{
 OFFSET 0.000000 0.000000 0.000000
 CHANNELS 6 Xposition Yposition Zposition Yrotation Xrotation Zrotation
 JOINT Chest
 {
  OFFSET 0.000000 10.354800 0.006500
  CHANNELS 3 Yrotation Xrotation Zrotation
  JOINT Chest2
  {
   OFFSET 0.000000 10.435800 -0.013200
   CHANNELS 3 Yrotation Xrotation Zrotation
   JOINT Chest3
   {
    OFFSET 0.000000 10.393700 0.000000
    CHANNELS 3 Yrotation Xrotation Zrotation
    JOINT Chest4
    {
     OFFSET 0.000000 10.383100 0.000000
     CHANNELS 3 Yrotation Xrotation Zrotation
     JOINT Neck
     {
      OFFSET 0.000000 15.694000 0.000000
      CHANNELS 3 Yrotation Xrotation Zrotation
      JOINT Head
      {
       OFFSET 0.000000 9.711000 -0.028000
       CHANNELS 3 Yrotation Xrotation Zrotation
       End Site
       {
        OFFSET 0.000000 18.578700 -0.014800
       }
      }
     }
     JOINT RightCollar
     {
      OFFSET -3.157200 10.367500 0.000000
      CHANNELS 3 Yrotation Xrotation Zrotation
      JOINT RightShoulder
      {
       OFFSET -14.482500 0.000000 0.000000
       CHANNELS 3 Yrotation Xrotation Zrotation
       JOINT RightElbow
       {
        OFFSET 0.000000 -31.707800 0.000000
        CHANNELS 3 Yrotation Xrotation Zrotation
        JOINT RightWrist
        {
         OFFSET 0.000000 -25.659300 0.000000
         CHANNELS 3 Yrotation Xrotation Zrotation
         End Site
         {
          OFFSET 0.000000 -18.994300 0.000000
         }
        }
       }
      }
     }
     JOINT LeftCollar
     {
      OFFSET 3.157200 10.367500 0.000000
      CHANNELS 3 Yrotation Xrotation Zrotation
      JOINT LeftShoulder
      {
       OFFSET 14.482500 0.000000 0.000000
       CHANNELS 3 Yrotation Xrotation Zrotation
       JOINT LeftElbow
       {
        OFFSET 0.000000 -31.707800 0.000000
        CHANNELS 3 Yrotation Xrotation Zrotation
        JOINT LeftWrist
        {
         OFFSET 0.000000 -25.659300 0.000000
         CHANNELS 3 Yrotation Xrotation Zrotation
         End Site
         {
          OFFSET 0.000000 -18.994300 0.000000
         }
        }
       }
      }
     }
    }
   }
  }
 }
 JOINT RightHip
 {
  OFFSET -8.365600 -0.032100 -0.003200
  CHANNELS 3 Yrotation Xrotation Zrotation
  JOINT RightKnee
  {
   OFFSET 0.000000 -43.980000 0.003100
   CHANNELS 3 Yrotation Xrotation Zrotation
   JOINT RightAnkle
   {
    OFFSET 0.000000 -42.882800 0.005200
    CHANNELS 3 Yrotation Xrotation Zrotation
    JOINT RightToe
    {
     OFFSET 0.000000 -4.915500 10.826300
     CHANNELS 3 Yrotation Xrotation Zrotation
     End Site
     {
      OFFSET 0.000000 -1.517500 6.175900
     }
    }
   }
  }
 }
 JOINT LeftHip
 {
  OFFSET 8.365600 -0.032100 -0.003200
  CHANNELS 3 Yrotation Xrotation Zrotation
  JOINT LeftKnee
  {
   OFFSET 0.000000 -43.980000 0.003100
   CHANNELS 3 Yrotation Xrotation Zrotation
   JOINT LeftAnkle
   {
    OFFSET 0.000000 -42.882800 0.005200
    CHANNELS 3 Yrotation Xrotation Zrotation
    JOINT LeftToe
    {
     OFFSET 0.000000 -4.915500 10.826300
     CHANNELS 3 Yrotation Xrotation Zrotation
     End Site
     {
      OFFSET 0.000000 -1.517500 6.175900
     }
    }
   }
  }
 }
}
MOTION
Frames: 13
Frame Time: 0.008333
0.000000 91.618600 0.000000 0.000000 -5.767877 0.000000 0.000000 11.653817 0.000000 0.000000 -5.885947 0.000000 0.000000 -0.000000 0.000000 0.000000 -0.000000 0.000000 0.000000 12.528835 0.000000 0.000000 0.711642 0.000000 0.000000 -0.000000 0.000000 0.000000 0.000000 -90.000000 0.000000 -2.309062 0.000000 0.000000 2.309062 0.000000 0.000000 -0.000000 0.000000 0.000000 -0.000000 90.000000 0.000000 -2.309062 0.000000 0.000000 2.309062 0.000000 0.000000 8.520406 0.000000 0.000000 1.905762 0.000000 -0.000000 -4.658285 0.000000 0.000000 -0.000000 0.000000 0.000000 8.520406 0.000000 0.000000 1.905762 0.000000 -0.000000 -4.658285 0.000000 0.000000 -0.000000 0.000000
93.604326 126.592262 123.307181 177.497706 -21.442673 -3.578525 -3.161313 12.820852 2.913251 -0.281871 1.074861 0.265538 -0.479585 1.789496 0.446899 -2.885754 11.553674 2.662299 -1.418021 20.696332 -3.692358 -0.675625 -3.726333 -3.611718 3.152780 5.296331 -4.964161 7.439087 -4.043724 -6.042930 -76.062052 -46.453732 122.128521 -26.672041 -16.810770 -37.002017 -0.060495 6.792514 -1.016589 4.549845 1.367305 -1.174421 74.329655 -46.912705 -131.439173 28.169199 -8.198845 42.193370 6.032580 -62.121672 4.140029 -85.217741 78.694237 -80.454594 4.562194 -9.258338 -14.189690 -0.001268 0.012060 -0.000576 -20.449930 -59.964415 15.274724 70.468681 81.169448 65.127971 -6.630881 -6.142570 -0.649084 0.002514 0.000574 0.001141
93.605665 126.589694 123.301726 177.494696 -21.404378 -3.560004 -3.141652 12.885831 2.901592 -0.283774 1.055074 0.263672 -0.478633 1.790888 0.444411 -2.878857 11.582596 2.639361 -1.327323 20.611657 -3.788286 -0.557128 -3.794346 -3.743569 3.125667 5.476906 -5.045862 7.365990 -4.397067 -6.126712 -75.572588 -46.264621 121.675043 -26.987333 -15.233163 -36.005316 -0.065002 6.933021 -0.944419 4.580784 1.136707 -1.304425 74.120279 -46.655882 -131.490007 28.485344 -8.333844 41.575106 6.047050 -62.164923 4.132550 -85.246914 78.686931 -80.493785 4.543269 -9.339745 -14.188446 -0.003821 0.007477 -0.001735 -20.459347 -60.002631 15.268800 70.427155 81.149416 65.081143 -6.622986 -6.133950 -0.653524 0.000324 0.000494 0.000147
93.607183 126.587185 123.294609 177.489879 -21.368558 -3.540100 -3.115592 12.934946 2.889876 -0.283162 1.056741 0.262338 -0.477620 1.793661 0.442125 -2.867578 11.616969 2.615979 -1.304695 20.514946 -3.875745 -0.510912 -3.874898 -3.852638 3.095682 5.622251 -5.143974 7.258410 -4.833491 -6.213266 -74.910121 -45.873117 121.063019 -27.425951 -13.733903 -34.885752 -0.099278 7.041011 -0.862718 4.612721 0.820536 -1.419467 73.998582 -46.333336 -131.576942 28.790445 -8.531830 40.934710 6.072858 -62.203587 4.113139 -85.258595 78.705523 -80.505164 4.505087 -9.439690 -14.193410 -0.005188 0.002201 -0.002355 -20.493119 -60.029206 15.280778 70.373514 81.121945 65.007863 -6.620407 -6.131233 -0.662682 -0.003655 0.002821 -0.001660
93.606836 126.582756 123.291465 177.510860 -21.304455 -3.521270 -3.109649 12.959906 2.872070 -0.282354 1.059696 0.261274 -0.476192 1.798401 0.440108 -2.856209 11.635143 2.600982 -1.344910 20.432073 -3.967738 -0.532834 -3.965702 -3.941946 3.076684 5.742392 -5.254651 7.163338 -5.362466 -6.320206 -74.174520 -45.208361 120.375781 -28.080961 -12.524725 -33.730548 -0.170600 7.127721 -0.780348 4.599468 0.411050 -1.559982 74.002296 -46.005878 -131.635685 29.107539 -8.778124 40.111411 6.106077 -62.266875 4.052771 -85.249287 78.744989 -80.493560 4.463284 -9.500554 -14.196883 -0.007787 0.007945 -0.003536 -20.526165 -60.093488 15.281266 70.224991 81.104814 64.855917 -6.616143 -6.111493 -0.674703 0.000309 0.003058 0.000141
93.605322 126.577584 123.290446 177.538670 -21.229226 -3.502305 -3.102688 12.975156 2.851316 -0.281083 1.063882 0.260314 -0.473889 1.805202 0.438437 -2.837693 11.660401 2.586858 -1.440646 20.347545 -4.054412 -0.615344 -4.058307 -4.012884 3.067602 5.799996 -5.354214 7.112812 -5.985855 -6.456120 -73.452899 -44.207117 119.715138 -28.980194 -11.805970 -32.673528 -0.280260 7.163975 -0.690346 4.482050 -0.128768 -1.751290 74.135889 -45.690067 -131.579556 29.499661 -9.041461 38.959463 6.118196 -62.347006 4.015353 -85.277996 78.742659 -80.536633 4.437755 -9.553406 -14.192570 -0.007132 0.007164 -0.003238 -20.570803 -60.168571 15.287644 69.906174 81.075529 64.533868 -6.630475 -6.059011 -0.692077 0.003483 -0.001573 0.001581
93.604740 126.573526 123.287957 177.554763 -21.169676 -3.489097 -3.073954 13.001442 2.837028 -0.279486 1.068732 0.259432 -0.471097 1.813273 0.437038 -2.814875 11.689759 2.573680 -1.581581 20.272299 -4.134749 -0.747834 -4.140201 -4.066941 3.073163 5.799253 -5.430237 7.110742 -6.705007 -6.617144 -72.800742 -42.893844 119.137429 -30.073673 -11.728680 -31.832696 -0.410479 7.151767 -0.603330 4.248697 -0.828200 -1.993532 74.356589 -45.349650 -131.378642 29.974054 -9.365669 37.535343 6.074160 -62.398533 4.047083 -85.184701 78.741205 -80.476516 4.423270 -9.645732 -14.190393 0.001931 -0.002062 0.000877 -20.634019 -60.224334 15.320796 69.733183 81.053393 64.345300 -6.638164 -6.025507 -0.699398 0.004110 -0.002944 0.001866
93.602469 126.570366 123.284754 177.566858 -21.121892 -3.471282 -3.066003 12.994218 2.816584 -0.253449 1.108026 0.249803 -0.481671 1.803408 0.441357 -2.779967 11.735188 2.554360 -1.756655 20.217197 -4.208017 -0.918784 -4.199039 -4.106013 3.101562 5.757767 -5.474066 7.147522 -7.520268 -6.799483 -72.287294 -41.414452 118.652923 -31.220167 -12.324265 -31.345087 -0.545785 7.100186 -0.543593 3.956705 -1.702544 -2.250877 74.615355 -44.961746 -131.056297 30.470189 -9.852086 36.066464 6.095552 -62.432388 4.007018 -85.051716 78.751676 -80.350526 4.405524 -9.761649 -14.177804 0.002559 -0.018197 0.001162 -20.675194 -60.268012 15.337998 69.611740 81.037898 64.206892 -6.643944 -6.005766 -0.702257 0.004867 -0.001253 0.002210
93.601346 126.567633 123.283043 177.608694 -21.072500 -3.477526 -3.041643 13.022281 2.802270 -0.263528 1.091979 0.253007 -0.519743 1.763777 0.458095 -2.722738 11.802230 2.518954 -1.958825 20.190596 -4.273510 -1.120847 -4.225135 -4.131008 3.160277 5.694205 -5.477078 7.194643 -8.431821 -7.009147 -72.006430 -39.957565 118.253767 -32.247652 -13.486320 -31.335706 -0.680537 7.023178 -0.527313 3.682191 -2.754356 -2.476842 74.926239 -44.582242 -130.641586 30.874395 -10.476524 34.759423 6.049479 -62.442601 4.001432 -84.771578 78.758535 -80.078640 4.364877 -9.820686 -14.177485 0.003573 -0.015006 0.001622 -20.768565 -60.307126 15.383572 69.484139 81.021220 64.061855 -6.641499 -5.990516 -0.707639 0.004696 0.002250 0.002132
93.598825 126.565849 123.280970 177.660874 -21.031759 -3.485837 -3.024206 13.031746 2.782651 -0.289183 1.076262 0.262955 -0.505390 1.798986 0.453420 -2.698970 11.785154 2.501604 -2.183674 20.196187 -4.330338 -1.349518 -4.214060 -4.142110 3.252809 5.620371 -5.434272 7.208975 -9.434772 -7.251470 -72.008557 -38.702224 117.905469 -33.087030 -15.075397 -31.741489 -0.818253 6.937853 -0.552077 3.473809 -3.971732 -2.644744 75.331980 -44.307003 -130.152919 31.102282 -11.104218 33.660820 6.007388 -62.439742 3.971801 -84.429576 78.782363 -79.739971 4.336752 -9.824768 -14.183257 0.009435 -0.010431 0.004283 -20.884219 -60.332958 15.430427 69.162893 80.968443 63.715817 -6.658230 -5.926762 -0.721360 -0.000102 -0.001689 -0.000046
93.596960 126.566142 123.275768 177.693270 -21.016439 -3.495181 -2.997298 13.026013 2.768983 -0.331605 1.075366 0.282103 -0.462516 1.830866 0.431803 -2.673221 11.754237 2.486838 -2.424005 20.232427 -4.379541 -1.597007 -4.167604 -4.142194 3.374550 5.534640 -5.352052 7.162243 -10.512602 -7.517541 -72.291875 -37.812834 117.533795 -33.723408 -16.967468 -32.296497 -0.967171 6.857907 -0.614398 3.327435 -5.325141 -2.743754 75.866716 -44.190207 -129.610736 31.225005 -11.707812 32.692924 5.982042 -62.435202 3.953932 -84.204434 78.804502 -79.519480 4.319705 -9.804876 -14.183176 0.020176 -0.027561 0.009157 -20.944052 -60.333990 15.455806 68.943791 80.934681 63.480850 -6.655445 -5.889714 -0.726995 -0.002389 -0.002109 -0.001085
93.595847 126.568029 123.268158 177.716882 -21.018362 -3.508828 -2.988560 13.027121 2.767514 -0.300448 1.085840 0.268718 -0.458492 1.829857 0.429103 -2.655539 11.715642 2.472044 -2.665764 20.292613 -4.423143 -1.847914 -4.093499 -4.136447 3.520589 5.422587 -5.248732 7.053061 -11.627143 -7.783277 -72.872311 -37.407429 117.097529 -34.094300 -18.890476 -32.755026 -1.128978 6.793053 -0.709462 3.199011 -6.776820 -2.768748 76.561566 -44.220951 -129.055865 31.342590 -12.339712 31.787718 5.947318 -62.374486 3.920017 -83.768209 78.855071 -79.084967 4.329580 -9.809470 -14.179948 0.020969 -0.024614 0.009517 -20.996628 -60.313019 15.491468 68.763797 80.918648 63.282784 -6.642964 -5.871153 -0.734399 -0.003254 -0.001042 -0.001478
93.592405 126.570645 123.258951 177.731673 -21.027189 -3.508316 -2.937879 13.000317 2.738130 -0.305807 1.101952 0.276506 -0.414075 1.789040 0.397673 -2.679262 11.713792 2.484415 -2.892280 20.365248 -4.461372 -2.084072 -4.004984 -4.128609 3.688217 5.265762 -5.146013 6.902285 -12.722297 -8.013444 -73.788922 -37.528845 116.627766 -34.156672 -20.515003 -33.034289 -1.299841 6.740142 -0.822161 3.076111 -8.286509 -2.738275 77.412914 -44.378208 -128.542661 31.435422 -12.993159 30.953987 6.002294 -62.260942 3.735212 -83.125772 78.966739 -78.401162 4.368418 -9.833719 -14.179424 -0.005337 0.013667 -0.002424 -21.005658 -60.294594 15.490722 68.599467 80.903724 63.108669 -6.638209 -5.845692 -0.738141 -0.006698 -0.005468 -0.003041
